<svg xmlns="http://www.w3.org/2000/svg" width="800" height="600" viewBox="0 0 800 600">
  <!-- Definición de estilos y gradientes -->
  <defs>
    <!-- Gradiente para router MikroTik -->
    <linearGradient id="routerGradient" x1="0%" y1="0%" x2="100%" y2="100%">
      <stop offset="0%" style="stop-color:#0061a8;stop-opacity:1" />
      <stop offset="100%" style="stop-color:#007bff;stop-opacity:1" />
    </linearGradient>
    
    <!-- Gradiente para ISPs -->
    <linearGradient id="ispGradient" x1="0%" y1="0%" x2="100%" y2="100%">
      <stop offset="0%" style="stop-color:#28a745;stop-opacity:1" />
      <stop offset="100%" style="stop-color:#20c997;stop-opacity:1" />
    </linearGradient>
    
    <!-- Gradiente para dispositivos de red local -->
    <linearGradient id="deviceGradient" x1="0%" y1="0%" x2="100%" y2="100%">
      <stop offset="0%" style="stop-color:#6c757d;stop-opacity:1" />
      <stop offset="100%" style="stop-color:#495057;stop-opacity:1" />
    </linearGradient>
    
    <!-- Gradiente para paquetes -->
    <linearGradient id="packet1Gradient" x1="0%" y1="0%" x2="100%" y2="100%">
      <stop offset="0%" style="stop-color:#fd7e14;stop-opacity:1" />
      <stop offset="100%" style="stop-color:#e83e8c;stop-opacity:1" />
    </linearGradient>
    
    <linearGradient id="packet2Gradient" x1="0%" y1="0%" x2="100%" y2="100%">
      <stop offset="0%" style="stop-color:#6f42c1;stop-opacity:1" />
      <stop offset="100%" style="stop-color:#20c997;stop-opacity:1" />
    </linearGradient>
    
    <!-- Sombra para elementos -->
    <filter id="shadow" x="-20%" y="-20%" width="140%" height="140%">
      <feDropShadow dx="2" dy="2" stdDeviation="3" flood-color="rgba(0,0,0,0.3)" />
    </filter>
    
    <!-- Patrón para área de routing -->
    <pattern id="routingPattern" patternUnits="userSpaceOnUse" width="10" height="10" patternTransform="rotate(45)">
      <rect width="10" height="10" fill="#f8f9fa"/>
      <line x1="0" y1="0" x2="0" y2="10" stroke="#dee2e6" stroke-width="1"/>
    </pattern>
  </defs>
  
  <!-- Fondo del diagrama -->
  <rect width="800" height="600" fill="#f8f9fa" rx="10" ry="10" />
  
  <!-- Título del diagrama -->
  <text x="400" y="30" font-family="'Segoe UI', sans-serif" font-size="20" text-anchor="middle" fill="#2c3e50" font-weight="bold">Funcionamiento del Balanceo ECMP en MikroTik</text>
  
  <!-- Internet (Nube) -->
  <path d="M400,80 C450,60 500,70 520,100 C550,90 580,110 570,140 C590,160 580,190 550,200 C560,230 530,250 500,240 C480,270 430,270 410,240 C380,260 340,240 340,210 C310,200 300,170 320,150 C310,120 340,90 370,100 C380,70 430,60 400,80" fill="#e9ecef" stroke="#ced4da" stroke-width="2" filter="url(#shadow)" />
  <text x="400" y="160" font-family="'Segoe UI', sans-serif" font-size="18" text-anchor="middle" fill="#495057" font-weight="bold">INTERNET</text>
  
  <!-- ISP 1 (WAN1) -->
  <rect x="200" y="240" width="120" height="60" rx="10" ry="10" fill="url(#ispGradient)" stroke="#28a745" stroke-width="2" filter="url(#shadow)" />
  <text x="260" y="275" font-family="'Segoe UI', sans-serif" font-size="16" text-anchor="middle" fill="white" font-weight="bold">WAN1</text>
  
  <!-- ISP 2 (WAN2) -->
  <rect x="480" y="240" width="120" height="60" rx="10" ry="10" fill="url(#ispGradient)" stroke="#28a745" stroke-width="2" filter="url(#shadow)" />
  <text x="540" y="275" font-family="'Segoe UI', sans-serif" font-size="16" text-anchor="middle" fill="white" font-weight="bold">WAN2</text>
  
  <!-- Conexiones de Internet a ISPs -->
  <line x1="380" y1="200" x2="260" y2="240" stroke="#6c757d" stroke-width="3" stroke-dasharray="5,5" />
  <line x1="420" y1="200" x2="540" y2="240" stroke="#6c757d" stroke-width="3" stroke-dasharray="5,5" />
  
  <!-- Router MikroTik (representado como un diagrama más simple que en PCC) -->
  <rect x="250" y="350" width="300" height="180" rx="10" ry="10" fill="white" stroke="#0061a8" stroke-width="2" filter="url(#shadow)" />
  <text x="400" y="375" font-family="'Segoe UI', sans-serif" font-size="18" text-anchor="middle" fill="#0061a8" font-weight="bold">Router MikroTik</text>
  
  <!-- Área de Routing dentro del router -->
  <rect x="300" y="390" width="200" height="120" rx="5" ry="5" fill="url(#routingPattern)" stroke="#6c757d" stroke-width="1" />
  <text x="400" y="410" font-family="'Segoe UI', sans-serif" font-size="14" text-anchor="middle" fill="#495057" font-weight="bold">ECMP Routing</text>
  <text x="400" y="430" font-family="'Segoe UI', sans-serif" font-size="12" text-anchor="middle" fill="#495057">Múltiples rutas con igual costo</text>
  
  <!-- Tabla de rutas dentro del área de routing -->
  <rect x="320" y="440" width="160" height="60" rx="3" ry="3" fill="white" stroke="#6c757d" stroke-width="1" />
  <text x="400" y="455" font-family="'Segoe UI', sans-serif" font-size="10" text-anchor="middle" fill="#495057" font-weight="bold">Tabla de Rutas</text>
  <text x="400" y="470" font-family="'Segoe UI', sans-serif" font-size="10" text-anchor="middle" fill="#495057">0.0.0.0/0 via 192.168.1.1 distance=1</text>
  <text x="400" y="485" font-family="'Segoe UI', sans-serif" font-size="10" text-anchor="middle" fill="#495057">0.0.0.0/0 via 192.168.2.1 distance=1</text>
  
  <!-- Conexiones de Router a ISPs -->
  <line x1="270" y1="450" x2="200" y2="300" stroke="#28a745" stroke-width="3" />
  <line x1="530" y1="450" x2="600" y2="300" stroke="#28a745" stroke-width="3" />
  
  <!-- Red Local (Rectángulo redondeado) -->
  <rect x="200" y="560" width="400" height="40" rx="20" ry="20" fill="#e9ecef" stroke="#ced4da" stroke-width="2" filter="url(#shadow)" />
  <text x="400" y="585" font-family="'Segoe UI', sans-serif" font-size="16" text-anchor="middle" fill="#495057" font-weight="bold">RED LOCAL (LAN)</text>
  
  <!-- Conexión de Router a Red Local -->
  <line x1="400" y1="530" x2="400" y2="560" stroke="#6c757d" stroke-width="3" />
  
  <!-- Flujo de paquetes -->
  <!-- Paquete 1 (por WAN1) -->
  <rect x="280" y="560" width="20" height="15" rx="2" ry="2" fill="url(#packet1Gradient)" stroke="#e83e8c" stroke-width="1" />
  <path d="M290,560 C290,520 280,480 270,450" stroke="#e83e8c" stroke-width="2" stroke-dasharray="5,3" fill="none" />
  <text x="240" y="520" font-family="'Segoe UI', sans-serif" font-size="12" text-anchor="middle" fill="#e83e8c" font-weight="bold">Paquete 1</text>
  <text x="240" y="535" font-family="'Segoe UI', sans-serif" font-size="10" text-anchor="middle" fill="#e83e8c">IP: 192.168.0.10→8.8.8.8</text>
  
  <!-- Paquete 2 (por WAN2) -->
  <rect x="320" y="560" width="20" height="15" rx="2" ry="2" fill="url(#packet2Gradient)" stroke="#6f42c1" stroke-width="1" />
  <path d="M330,560 C330,520 350,480 370,450" stroke="#6f42c1" stroke-width="2" stroke-dasharray="5,3" fill="none" />
  <text x="370" y="520" font-family="'Segoe UI', sans-serif" font-size="12" text-anchor="middle" fill="#6f42c1" font-weight="bold">Paquete 2</text>
  <text x="370" y="535" font-family="'Segoe UI', sans-serif" font-size="10" text-anchor="middle" fill="#6f42c1">IP: 192.168.0.10→1.1.1.1</text>
  
  <!-- Paquete 3 (por WAN1) -->
  <rect x="360" y="560" width="20" height="15" rx="2" ry="2" fill="url(#packet1Gradient)" stroke="#e83e8c" stroke-width="1" />
  <path d="M370,560 C370,520 360,480 350,450" stroke="#e83e8c" stroke-width="2" stroke-dasharray="5,3" fill="none" />
  <text x="320" y="490" font-family="'Segoe UI', sans-serif" font-size="12" text-anchor="middle" fill="#e83e8c" font-weight="bold">Paquete 3</text>
  <text x="320" y="505" font-family="'Segoe UI', sans-serif" font-size="10" text-anchor="middle" fill="#e83e8c">IP: 192.168.0.11→8.8.4.4</text>
  
  <!-- Paquete 4 (por WAN2) -->
  <rect x="400" y="560" width="20" height="15" rx="2" ry="2" fill="url(#packet2Gradient)" stroke="#6f42c1" stroke-width="1" />
  <path d="M410,560 C410,520 430,480 450,450" stroke="#6f42c1" stroke-width="2" stroke-dasharray="5,3" fill="none" />
  <text x="480" y="490" font-family="'Segoe UI', sans-serif" font-size="12" text-anchor="middle" fill="#6f42c1" font-weight="bold">Paquete 4</text>
  <text x="480" y="505" font-family="'Segoe UI', sans-serif" font-size="10" text-anchor="middle" fill="#6f42c1">IP: 192.168.0.12→9.9.9.9</text>
  
  <!-- Paquete 5 (mismo flujo que paquete 1, pero por WAN2) -->
  <rect x="440" y="560" width="20" height="15" rx="2" ry="2" fill="url(#packet1Gradient)" stroke="#e83e8c" stroke-width="1" />
  <path d="M450,560 C450,520 470,480 490,450" stroke="#e83e8c" stroke-width="2" stroke-dasharray="5,3" fill="none" />
  <text x="560" y="520" font-family="'Segoe UI', sans-serif" font-size="12" text-anchor="middle" fill="#e83e8c" font-weight="bold">Paquete 5</text>
  <text x="560" y="535" font-family="'Segoe UI', sans-serif" font-size="10" text-anchor="middle" fill="#e83e8c">IP: 192.168.0.10→8.8.8.8</text>
  
  <!-- Advertencia sobre paquetes del mismo flujo tomando rutas diferentes -->
  <path d="M290,560 L450,560" stroke="#dc3545" stroke-width="1" stroke-dasharray="2,2" />
  <text x="370" y="550" font-family="'Segoe UI', sans-serif" font-size="10" text-anchor="middle" fill="#dc3545">¡Mismo flujo, rutas diferentes!</text>
  
  <!-- Algoritmo ECMP -->
  <rect x="600" y="390" width="180" height="120" rx="5" ry="5" fill="white" stroke="#ced4da" stroke-width="1" filter="url(#shadow)" />
  <text x="690" y="410" font-family="'Segoe UI', sans-serif" font-size="14" text-anchor="middle" fill="#2c3e50" font-weight="bold">Algoritmo ECMP</text>
  <text x="690" y="435" font-family="'Segoe UI', sans-serif" font-size="12" text-anchor="middle" fill="#2c3e50">Selección de ruta basada en:</text>
  <text x="690" y="455" font-family="'Segoe UI', sans-serif" font-size="12" text-anchor="middle" fill="#2c3e50">- both-addresses (default)</text>
  <text x="690" y="475" font-family="'Segoe UI', sans-serif" font-size="12" text-anchor="middle" fill="#2c3e50">- round-robin</text>
  <text x="690" y="495" font-family="'Segoe UI', sans-serif" font-size="12" text-anchor="middle" fill="#2c3e50">- random</text>
  
  <!-- Leyenda -->
  <rect x="600" y="150" width="180" height="180" rx="5" ry="5" fill="white" stroke="#ced4da" stroke-width="1" filter="url(#shadow)" />
  <text x="690" y="170" font-family="'Segoe UI', sans-serif" font-size="14" text-anchor="middle" fill="#2c3e50" font-weight="bold">Leyenda</text>
  
  <!-- Elementos de la leyenda -->
  <rect x="610" y="180" width="20" height="20" rx="3" ry="3" fill="white" stroke="#0061a8" stroke-width="2" />
  <text x="640" y="195" font-family="'Segoe UI', sans-serif" font-size="12" text-anchor="start" fill="#2c3e50">Router MikroTik</text>
  
  <rect x="610" y="210" width="20" height="20" rx="3" ry="3" fill="url(#ispGradient)" stroke="#28a745" stroke-width="1" />
  <text x="640" y="225" font-family="'Segoe UI', sans-serif" font-size="12" text-anchor="start" fill="#2c3e50">Interfaces WAN</text>
  
  <rect x="610" y="240" width="20" height="20" rx="3" ry="3" fill="url(#routingPattern)" stroke="#6c757d" stroke-width="1" />
  <text x="640" y="255" font-family="'Segoe UI', sans-serif" font-size="12" text-anchor="start" fill="#2c3e50">Tabla de Rutas ECMP</text>
  
  <rect x="610" y="270" width="20" height="15" rx="2" ry="2" fill="url(#packet1Gradient)" stroke="#e83e8c" stroke-width="1" />
  <text x="640" y="280" font-family="'Segoe UI', sans-serif" font-size="12" text-anchor="start" fill="#2c3e50">Paquetes</text>
  
  <line x1="610" y1="300" x2="630" y2="300" stroke="#dc3545" stroke-width="1" stroke-dasharray="2,2" />
  <text x="640" y="305" font-family="'Segoe UI', sans-serif" font-size="12" text-anchor="start" fill="#2c3e50">Problema de integridad</text>
</svg>